<svg xmlns="http://www.w3.org/2000/svg" xmlns:xlink="http://www.w3.org/1999/xlink" viewBox="0 0 22.18 38.94"><defs><style>.cls-1{fill:#fff;}.cls-2{mask:url(#mask);}.cls-3{fill:#f47a20;}.cls-4{fill:#579cbe;}.cls-5{fill:#00467f;}</style><mask id="mask" x="-134.8" y="0" width="156.98" height="38.94" maskUnits="userSpaceOnUse"><g id="as"><polygon id="m" class="cls-1" points="-134.8 38.94 22.18 38.94 22.18 0 -134.8 0 -134.8 38.94"/></g></mask></defs><g id="Layer_2" data-name="Layer 2"><g id="Layer_1-2" data-name="Layer 1"><g class="cls-2"><path class="cls-3" d="M.24,7.07A2.3,2.3,0,0,0,0,8.32C0,12.11.23,16.38,2.84,20c1.74,2.41,6,6.94,7.52,9.78a27.47,27.47,0,0,1,3.1,8c.14.8.29,1.21.72,1.21s.69-.32.8-1.29a22.36,22.36,0,0,0-.35-8.34c-1.11-3.82-3.5-7.52-7.54-11.67-3.31-3.4-5-6.38-5.6-9.67a1.57,1.57,0,0,0-.31-.9.55.55,0,0,0-.94,0"/></g><g class="cls-2"><path class="cls-4" d="M22.18,7.16c0,3.39-.21,7.23-2.55,10.45-1.56,2.16-5.42,6.22-6.75,8.77a25,25,0,0,0-2.78,7.16c-.12.72-.26,1.09-.64,1.09s-.62-.29-.72-1.16A20.34,20.34,0,0,1,9.05,26c1-3.42,3.15-6.74,6.77-10.46,3-3,4.52-5.72,5-8.67A1.47,1.47,0,0,1,21.12,6,.49.49,0,0,1,22,6a2,2,0,0,1,.22,1.13Z"/></g><g class="cls-2"><path class="cls-5" d="M10.8,21.94a18.58,18.58,0,0,0-1.75,4,11.47,11.47,0,0,0-.29,1.32,18.66,18.66,0,0,1,1.6,2.45c.19.35.35.68.52,1a40.24,40.24,0,0,1,2-4.38c.1-.19.22-.39.34-.59a27.06,27.06,0,0,0-2.42-3.85"/></g><g class="cls-2"><path class="cls-5" d="M4.21.27A2.3,2.3,0,0,0,4,1.52C4,5.31,4.2,9.58,6.8,13.17c1.75,2.41,6.05,6.94,7.53,9.78a27.47,27.47,0,0,1,3.1,8c.14.8.29,1.21.72,1.21s.69-.31.8-1.29a22.36,22.36,0,0,0-.35-8.34c-1.11-3.82-3.5-7.52-7.54-11.67C7.75,7.45,6,4.47,5.46,1.17a1.57,1.57,0,0,0-.31-.9.55.55,0,0,0-.94,0"/></g></g></g></svg>